<mxfile host="app.diagrams.net" modified="2024-04-16T20:13:56.048Z" agent="Mozilla/5.0 (Windows NT 10.0; Win64; x64) AppleWebKit/537.36 (KHTML, like Gecko) Chrome/123.0.0.0 Safari/537.36" etag="8BQE-jJNyvorhe9yT6tO" version="24.2.5" type="github">
  <diagram id="C5RBs43oDa-KdzZeNtuy" name="Page-1">
    <mxGraphModel dx="869" dy="557" grid="1" gridSize="10" guides="1" tooltips="1" connect="1" arrows="1" fold="1" page="1" pageScale="1" pageWidth="827" pageHeight="1169" math="0" shadow="0">
      <root>
        <mxCell id="WIyWlLk6GJQsqaUBKTNV-0" />
        <mxCell id="WIyWlLk6GJQsqaUBKTNV-1" parent="WIyWlLk6GJQsqaUBKTNV-0" />
        <mxCell id="eMI89bmwAzjS_euMnB38-0" value="Celcius - Fahrenheit Converter Flowchart&lt;div&gt;&lt;br&gt;&lt;/div&gt;&lt;div&gt;Briana Asselin&lt;/div&gt;&lt;div&gt;CITP 110&lt;/div&gt;&lt;div&gt;4.16.24&lt;/div&gt;" style="rounded=0;whiteSpace=wrap;html=1;" vertex="1" parent="WIyWlLk6GJQsqaUBKTNV-1">
          <mxGeometry x="100" y="110" width="120" height="110" as="geometry" />
        </mxCell>
        <mxCell id="eMI89bmwAzjS_euMnB38-1" value="Start Converter Program GUI" style="ellipse;whiteSpace=wrap;html=1;" vertex="1" parent="WIyWlLk6GJQsqaUBKTNV-1">
          <mxGeometry x="390" y="50" width="100" height="70" as="geometry" />
        </mxCell>
        <mxCell id="eMI89bmwAzjS_euMnB38-2" value="Output&amp;nbsp;&lt;div&gt;program&lt;br&gt;&lt;div&gt;instructions&lt;/div&gt;&lt;/div&gt;" style="shape=parallelogram;perimeter=parallelogramPerimeter;whiteSpace=wrap;html=1;fixedSize=1;" vertex="1" parent="WIyWlLk6GJQsqaUBKTNV-1">
          <mxGeometry x="380" y="160" width="120" height="60" as="geometry" />
        </mxCell>
        <mxCell id="eMI89bmwAzjS_euMnB38-3" value="Get Celcius&lt;div&gt;temperature&lt;br&gt;&lt;div&gt;from user&lt;/div&gt;&lt;/div&gt;" style="shape=parallelogram;perimeter=parallelogramPerimeter;whiteSpace=wrap;html=1;fixedSize=1;" vertex="1" parent="WIyWlLk6GJQsqaUBKTNV-1">
          <mxGeometry x="380" y="270" width="120" height="60" as="geometry" />
        </mxCell>
        <mxCell id="eMI89bmwAzjS_euMnB38-4" value="Convert Celcius&lt;div&gt;to Fahrenheit&lt;/div&gt;" style="rounded=0;whiteSpace=wrap;html=1;" vertex="1" parent="WIyWlLk6GJQsqaUBKTNV-1">
          <mxGeometry x="364" y="490" width="120" height="60" as="geometry" />
        </mxCell>
        <mxCell id="eMI89bmwAzjS_euMnB38-5" value="Display&lt;div&gt;conversion&lt;/div&gt;&lt;div&gt;result&lt;/div&gt;" style="shape=parallelogram;perimeter=parallelogramPerimeter;whiteSpace=wrap;html=1;fixedSize=1;" vertex="1" parent="WIyWlLk6GJQsqaUBKTNV-1">
          <mxGeometry x="369" y="610" width="120" height="60" as="geometry" />
        </mxCell>
        <mxCell id="eMI89bmwAzjS_euMnB38-10" value="" style="edgeStyle=orthogonalEdgeStyle;rounded=0;orthogonalLoop=1;jettySize=auto;html=1;entryX=1;entryY=0.5;entryDx=0;entryDy=0;exitX=1;exitY=0.5;exitDx=0;exitDy=0;" edge="1" parent="WIyWlLk6GJQsqaUBKTNV-1" source="eMI89bmwAzjS_euMnB38-12" target="eMI89bmwAzjS_euMnB38-3">
          <mxGeometry relative="1" as="geometry">
            <mxPoint x="610" y="310" as="targetPoint" />
            <Array as="points">
              <mxPoint x="600" y="780" />
              <mxPoint x="600" y="300" />
            </Array>
          </mxGeometry>
        </mxCell>
        <mxCell id="eMI89bmwAzjS_euMnB38-11" value="" style="edgeStyle=orthogonalEdgeStyle;rounded=0;orthogonalLoop=1;jettySize=auto;html=1;entryX=1;entryY=0.5;entryDx=0;entryDy=0;" edge="1" parent="WIyWlLk6GJQsqaUBKTNV-1" source="eMI89bmwAzjS_euMnB38-12" target="eMI89bmwAzjS_euMnB38-15">
          <mxGeometry relative="1" as="geometry">
            <mxPoint x="230" y="860" as="targetPoint" />
          </mxGeometry>
        </mxCell>
        <mxCell id="eMI89bmwAzjS_euMnB38-12" value="Convert&lt;div&gt;another&lt;/div&gt;&lt;div&gt;temperature?&lt;/div&gt;" style="rhombus;whiteSpace=wrap;html=1;" vertex="1" parent="WIyWlLk6GJQsqaUBKTNV-1">
          <mxGeometry x="374" y="720" width="110" height="120" as="geometry" />
        </mxCell>
        <mxCell id="eMI89bmwAzjS_euMnB38-13" value="True" style="text;html=1;align=center;verticalAlign=middle;resizable=0;points=[];autosize=1;strokeColor=none;fillColor=none;" vertex="1" parent="WIyWlLk6GJQsqaUBKTNV-1">
          <mxGeometry x="490" y="750" width="50" height="30" as="geometry" />
        </mxCell>
        <mxCell id="eMI89bmwAzjS_euMnB38-14" value="False" style="text;html=1;align=center;verticalAlign=middle;resizable=0;points=[];autosize=1;strokeColor=none;fillColor=none;" vertex="1" parent="WIyWlLk6GJQsqaUBKTNV-1">
          <mxGeometry x="314" y="750" width="50" height="30" as="geometry" />
        </mxCell>
        <mxCell id="eMI89bmwAzjS_euMnB38-15" value="Click&lt;div&gt;Quit&lt;/div&gt;&lt;div&gt;Button&lt;/div&gt;" style="shape=parallelogram;perimeter=parallelogramPerimeter;whiteSpace=wrap;html=1;fixedSize=1;" vertex="1" parent="WIyWlLk6GJQsqaUBKTNV-1">
          <mxGeometry x="160" y="750" width="130" height="60" as="geometry" />
        </mxCell>
        <mxCell id="eMI89bmwAzjS_euMnB38-16" value="End&lt;div&gt;Converter&lt;/div&gt;&lt;div&gt;Program&lt;/div&gt;" style="ellipse;whiteSpace=wrap;html=1;" vertex="1" parent="WIyWlLk6GJQsqaUBKTNV-1">
          <mxGeometry x="170" y="870" width="110" height="70" as="geometry" />
        </mxCell>
        <mxCell id="eMI89bmwAzjS_euMnB38-17" value="" style="endArrow=classic;html=1;rounded=0;exitX=0.5;exitY=1;exitDx=0;exitDy=0;entryX=0.5;entryY=0;entryDx=0;entryDy=0;" edge="1" parent="WIyWlLk6GJQsqaUBKTNV-1" target="eMI89bmwAzjS_euMnB38-16" source="eMI89bmwAzjS_euMnB38-15">
          <mxGeometry width="50" height="50" relative="1" as="geometry">
            <mxPoint x="215" y="920" as="sourcePoint" />
            <mxPoint x="300" y="920" as="targetPoint" />
          </mxGeometry>
        </mxCell>
        <mxCell id="eMI89bmwAzjS_euMnB38-18" value="Click&lt;div&gt;Save&lt;/div&gt;&lt;div&gt;Button&lt;/div&gt;" style="shape=parallelogram;perimeter=parallelogramPerimeter;whiteSpace=wrap;html=1;fixedSize=1;" vertex="1" parent="WIyWlLk6GJQsqaUBKTNV-1">
          <mxGeometry x="364" y="380" width="120" height="60" as="geometry" />
        </mxCell>
        <mxCell id="eMI89bmwAzjS_euMnB38-19" value="" style="endArrow=classic;html=1;rounded=0;exitX=0.5;exitY=1;exitDx=0;exitDy=0;entryX=0.626;entryY=0.01;entryDx=0;entryDy=0;entryPerimeter=0;" edge="1" parent="WIyWlLk6GJQsqaUBKTNV-1" source="eMI89bmwAzjS_euMnB38-3" target="eMI89bmwAzjS_euMnB38-18">
          <mxGeometry width="50" height="50" relative="1" as="geometry">
            <mxPoint x="400" y="590" as="sourcePoint" />
            <mxPoint x="450" y="540" as="targetPoint" />
          </mxGeometry>
        </mxCell>
        <mxCell id="eMI89bmwAzjS_euMnB38-20" value="" style="endArrow=classic;html=1;rounded=0;exitX=0.5;exitY=1;exitDx=0;exitDy=0;" edge="1" parent="WIyWlLk6GJQsqaUBKTNV-1" source="eMI89bmwAzjS_euMnB38-1">
          <mxGeometry width="50" height="50" relative="1" as="geometry">
            <mxPoint x="432" y="340" as="sourcePoint" />
            <mxPoint x="440" y="160" as="targetPoint" />
          </mxGeometry>
        </mxCell>
        <mxCell id="eMI89bmwAzjS_euMnB38-21" value="" style="endArrow=classic;html=1;rounded=0;exitX=0.5;exitY=1;exitDx=0;exitDy=0;entryX=0.5;entryY=0;entryDx=0;entryDy=0;" edge="1" parent="WIyWlLk6GJQsqaUBKTNV-1" source="eMI89bmwAzjS_euMnB38-2" target="eMI89bmwAzjS_euMnB38-3">
          <mxGeometry width="50" height="50" relative="1" as="geometry">
            <mxPoint x="442" y="350" as="sourcePoint" />
            <mxPoint x="444" y="400" as="targetPoint" />
          </mxGeometry>
        </mxCell>
        <mxCell id="eMI89bmwAzjS_euMnB38-22" value="" style="endArrow=classic;html=1;rounded=0;exitX=0.5;exitY=1;exitDx=0;exitDy=0;entryX=0.5;entryY=0;entryDx=0;entryDy=0;" edge="1" parent="WIyWlLk6GJQsqaUBKTNV-1" source="eMI89bmwAzjS_euMnB38-18" target="eMI89bmwAzjS_euMnB38-4">
          <mxGeometry width="50" height="50" relative="1" as="geometry">
            <mxPoint x="452" y="360" as="sourcePoint" />
            <mxPoint x="454" y="410" as="targetPoint" />
          </mxGeometry>
        </mxCell>
        <mxCell id="eMI89bmwAzjS_euMnB38-23" value="" style="endArrow=classic;html=1;rounded=0;exitX=0.573;exitY=1.033;exitDx=0;exitDy=0;entryX=0.5;entryY=0;entryDx=0;entryDy=0;exitPerimeter=0;" edge="1" parent="WIyWlLk6GJQsqaUBKTNV-1" source="eMI89bmwAzjS_euMnB38-4" target="eMI89bmwAzjS_euMnB38-5">
          <mxGeometry width="50" height="50" relative="1" as="geometry">
            <mxPoint x="462" y="370" as="sourcePoint" />
            <mxPoint x="464" y="420" as="targetPoint" />
          </mxGeometry>
        </mxCell>
        <mxCell id="eMI89bmwAzjS_euMnB38-24" value="" style="endArrow=classic;html=1;rounded=0;exitX=0.5;exitY=1;exitDx=0;exitDy=0;entryX=0.5;entryY=0;entryDx=0;entryDy=0;" edge="1" parent="WIyWlLk6GJQsqaUBKTNV-1" source="eMI89bmwAzjS_euMnB38-5" target="eMI89bmwAzjS_euMnB38-12">
          <mxGeometry width="50" height="50" relative="1" as="geometry">
            <mxPoint x="472" y="380" as="sourcePoint" />
            <mxPoint x="474" y="430" as="targetPoint" />
          </mxGeometry>
        </mxCell>
      </root>
    </mxGraphModel>
  </diagram>
</mxfile>
